<svg data-v-2cb57da0="" version="1.0" xmlns="http://www.w3.org/2000/svg" xmlns:xlink="http://www.w3.org/1999/xlink" width="100%" height="100%" viewBox="0 0 340.000000 250.000000" preserveAspectRatio="xMidYMid meet" color-interpolation-filters="sRGB" style="margin: auto;">
	<rect data-v-2cb57da0="" x="0" y="0" width="100%" height="100%" fill="#1c085d" fill-opacity="0" class="background">
	</rect>
	<!--  -->
	<g data-v-2cb57da0="" fill="#ffffff" class="bordersvg b-d1" transform="translate(85.29000091552734,49.790006160736084)">
		<path fill-opacity="0" stroke="#ffffff" stroke-width="5" fill="#1c085d" d="M 28.30202146095565 33 A 69.70999908447266 69.70999908447266 0 0 1 141.11797670798967 33">
		</path>
		<path fill-opacity="0" stroke="#ffffff" stroke-width="5" fill="#1c085d" d="M 28.30202146095565 117.41999816894531 A 69.70999908447266 69.70999908447266 0 0 0 141.11797670798967 117.41999816894531">
		</path>
		<path fill-opacity="0" stroke="#ffffff" stroke-width="3" fill="#1c085d" d="M 43.30202146095565 33 A 54.709999084472656 54.709999084472656 0 0 1 126.11797670798967 33">
		</path>
		<path fill-opacity="0" stroke="#ffffff" stroke-width="3" fill="#1c085d" d="M 43.30202146095565 117.41999816894531 A 54.709999084472656 54.709999084472656 0 0 0 126.11797670798967 117.41999816894531">
		</path>
		<polyline stroke="#ffffff" stroke-width="3" fill-opacity="0" points="43.209999084472656,107.41999816894531 0,107.41999816894531 0,43 169.4199981689453,43 169.4199981689453,107.41999816894531 125.45999908447266,107.41999816894531">
		</polyline>
		<g transform="translate(10,53)">
			<g>
				<rect data-gra="graph-name-bg" stroke-width="2" class="i-icon-bg" x="0" y="0" width="147.9199981689453" height="63.41999816894531" fill-opacity="0">
				</rect>
				<!--  -->
				<!--  -->
			</g>
			<g transform="translate(0,3)">
				<g fill-rule="" class="tp-name" transform="translate(0,0)">
					<g transform="scale(1)">
						<g>
							<g fill="#ff0050" data-gra-ignore="true" transform="translate(1.5, 1.5)">
								<path d="M0-12.33L3.08-12.33 3.08-9.25 0-9.25ZM12.33-9.25L12.33-12.33 9.25-12.33 9.25-9.25ZM6.17-21.58L12.33-21.58 12.33-24.67 6.17-24.67ZM3.08-27.75L15.42-27.75 15.42-18.5 6.17-18.5 6.17-15.42 15.42-15.42 15.42-6.17 6.17-6.17 6.17-12.33 3.08-12.33ZM24.67-18.5L27.75-18.5 27.75-21.58 24.67-21.58ZM18.5-18.5L21.58-18.5 21.58-21.58 18.5-21.58 18.5-24.67 24.67-24.67 24.67-27.75 27.75-27.75 27.75-24.67 33.92-24.67 33.92-21.58 30.83-21.58 30.83-18.5 33.92-18.5 33.92-15.42 27.75-15.42 27.75-12.33 33.92-12.33 33.92-9.25 27.75-9.25 27.75-6.17 24.67-6.17 24.67-9.25 18.5-9.25 18.5-12.33 24.67-12.33 24.67-15.42 18.5-15.42ZM33.92 6.17L0 6.17 0 3.08 15.42 3.08 15.42 0 3.08 0 3.08-3.08 15.42-3.08 15.42-6.17 18.5-6.17 18.5-3.08 30.83-3.08 30.83 0 18.5 0 18.5 3.08 33.92 3.08ZM67.83-27.75L67.83-21.58 64.75-21.58 64.75-24.67 40.08-24.67 40.08-27.75ZM61.67-21.58L64.75-21.58 64.75-18.5 61.67-18.5ZM58.58-18.5L61.67-18.5 61.67-15.42 58.58-15.42ZM55.5 3.08L55.5-15.42 58.58-15.42 58.58 6.17 49.33 6.17 49.33 3.08ZM89.42-27.75L92.5-27.75 92.5-24.67 89.42-24.67ZM86.33-24.67L89.42-24.67 89.42-21.58 86.33-21.58ZM92.5-24.67L95.58-24.67 95.58-21.58 92.5-21.58ZM83.25-21.58L86.33-21.58 86.33-18.5 83.25-18.5ZM95.58-21.58L98.67-21.58 98.67-18.5 95.58-18.5ZM80.17-18.5L83.25-18.5 83.25-15.42 80.17-15.42ZM98.67-18.5L101.75-18.5 101.75-15.42 98.67-15.42ZM74-15.42L80.17-15.42 80.17-12.33 74-12.33ZM101.75-15.42L107.92-15.42 107.92-12.33 101.75-12.33ZM89.42-15.42L92.5-15.42 92.5 6.17 89.42 6.17ZM117.17-27.75L120.25-27.75 120.25-24.67 117.17-24.67ZM138.75-27.75L144.92-27.75 144.92-24.67 138.75-24.67ZM114.08-24.67L117.17-24.67 117.17-21.58 114.08-21.58ZM120.25-18.5L120.25-21.58 123.33-21.58 123.33-15.42 120.25-15.42 120.25-12.33 117.17-12.33 117.17-15.42 111-15.42 111-21.58 114.08-21.58 114.08-18.5ZM114.08-12.33L117.17-12.33 117.17-9.25 114.08-9.25ZM111-9.25L114.08-9.25 114.08-6.17 123.33-6.17 123.33-3.08 111-3.08ZM117.17 0L123.33 0 123.33 3.08 117.17 3.08ZM132.58 0L138.75 0 138.75 3.08 132.58 3.08ZM117.17 6.17L111 6.17 111 3.08 117.17 3.08ZM129.5-12.33L135.67-12.33 135.67-21.58 129.5-21.58ZM126.42-24.67L138.75-24.67 138.75-12.33 144.92-12.33 144.92-9.25 141.83-9.25 141.83 0 138.75 0 138.75-9.25 129.5-9.25 129.5 3.08 132.58 3.08 132.58 6.17 123.33 6.17 123.33 3.08 126.42 3.08ZM141.83 0L144.92 0 144.92 6.17 141.83 6.17Z" transform="translate(0, 27.75)">
								</path>
							</g>
							<g fill="#00faf0" data-gra-ignore="true" transform="translate(-1.5, -1.5)">
								<path d="M0-12.33L3.08-12.33 3.08-9.25 0-9.25ZM12.33-9.25L12.33-12.33 9.25-12.33 9.25-9.25ZM6.17-21.58L12.33-21.58 12.33-24.67 6.17-24.67ZM3.08-27.75L15.42-27.75 15.42-18.5 6.17-18.5 6.17-15.42 15.42-15.42 15.42-6.17 6.17-6.17 6.17-12.33 3.08-12.33ZM24.67-18.5L27.75-18.5 27.75-21.58 24.67-21.58ZM18.5-18.5L21.58-18.5 21.58-21.58 18.5-21.58 18.5-24.67 24.67-24.67 24.67-27.75 27.75-27.75 27.75-24.67 33.92-24.67 33.92-21.58 30.83-21.58 30.83-18.5 33.92-18.5 33.92-15.42 27.75-15.42 27.75-12.33 33.92-12.33 33.92-9.25 27.75-9.25 27.75-6.17 24.67-6.17 24.67-9.25 18.5-9.25 18.5-12.33 24.67-12.33 24.67-15.42 18.5-15.42ZM33.92 6.17L0 6.17 0 3.08 15.42 3.08 15.42 0 3.08 0 3.08-3.08 15.42-3.08 15.42-6.17 18.5-6.17 18.5-3.08 30.83-3.08 30.83 0 18.5 0 18.5 3.08 33.92 3.08ZM67.83-27.75L67.83-21.58 64.75-21.58 64.75-24.67 40.08-24.67 40.08-27.75ZM61.67-21.58L64.75-21.58 64.75-18.5 61.67-18.5ZM58.58-18.5L61.67-18.5 61.67-15.42 58.58-15.42ZM55.5 3.08L55.5-15.42 58.58-15.42 58.58 6.17 49.33 6.17 49.33 3.08ZM89.42-27.75L92.5-27.75 92.5-24.67 89.42-24.67ZM86.33-24.67L89.42-24.67 89.42-21.58 86.33-21.58ZM92.5-24.67L95.58-24.67 95.58-21.58 92.5-21.58ZM83.25-21.58L86.33-21.58 86.33-18.5 83.25-18.5ZM95.58-21.58L98.67-21.58 98.67-18.5 95.58-18.5ZM80.17-18.5L83.25-18.5 83.25-15.42 80.17-15.42ZM98.67-18.5L101.75-18.5 101.75-15.42 98.67-15.42ZM74-15.42L80.17-15.42 80.17-12.33 74-12.33ZM101.75-15.42L107.92-15.42 107.92-12.33 101.75-12.33ZM89.42-15.42L92.5-15.42 92.5 6.17 89.42 6.17ZM117.17-27.75L120.25-27.75 120.25-24.67 117.17-24.67ZM138.75-27.75L144.92-27.75 144.92-24.67 138.75-24.67ZM114.08-24.67L117.17-24.67 117.17-21.58 114.08-21.58ZM120.25-18.5L120.25-21.58 123.33-21.58 123.33-15.42 120.25-15.42 120.25-12.33 117.17-12.33 117.17-15.42 111-15.42 111-21.58 114.08-21.58 114.08-18.5ZM114.08-12.33L117.17-12.33 117.17-9.25 114.08-9.25ZM111-9.25L114.08-9.25 114.08-6.17 123.33-6.17 123.33-3.08 111-3.08ZM117.17 0L123.33 0 123.33 3.08 117.17 3.08ZM132.58 0L138.75 0 138.75 3.08 132.58 3.08ZM117.17 6.17L111 6.17 111 3.08 117.17 3.08ZM129.5-12.33L135.67-12.33 135.67-21.58 129.5-21.58ZM126.42-24.67L138.75-24.67 138.75-12.33 144.92-12.33 144.92-9.25 141.83-9.25 141.83 0 138.75 0 138.75-9.25 129.5-9.25 129.5 3.08 132.58 3.08 132.58 6.17 123.33 6.17 123.33 3.08 126.42 3.08ZM141.83 0L144.92 0 144.92 6.17 141.83 6.17Z" transform="translate(0, 27.75)">
								</path>
							</g>
							<g>
								<path d="M0-12.33L3.08-12.33 3.08-9.25 0-9.25ZM12.33-9.25L12.33-12.33 9.25-12.33 9.25-9.25ZM6.17-21.58L12.33-21.58 12.33-24.67 6.17-24.67ZM3.08-27.75L15.42-27.75 15.42-18.5 6.17-18.5 6.17-15.42 15.42-15.42 15.42-6.17 6.17-6.17 6.17-12.33 3.08-12.33ZM24.67-18.5L27.75-18.5 27.75-21.58 24.67-21.58ZM18.5-18.5L21.58-18.5 21.58-21.58 18.5-21.58 18.5-24.67 24.67-24.67 24.67-27.75 27.75-27.75 27.75-24.67 33.92-24.67 33.92-21.58 30.83-21.58 30.83-18.5 33.92-18.5 33.92-15.42 27.75-15.42 27.75-12.33 33.92-12.33 33.92-9.25 27.75-9.25 27.75-6.17 24.67-6.17 24.67-9.25 18.5-9.25 18.5-12.33 24.67-12.33 24.67-15.42 18.5-15.42ZM33.92 6.17L0 6.17 0 3.08 15.42 3.08 15.42 0 3.08 0 3.08-3.08 15.42-3.08 15.42-6.17 18.5-6.17 18.5-3.08 30.83-3.08 30.83 0 18.5 0 18.5 3.08 33.92 3.08ZM67.83-27.75L67.83-21.58 64.75-21.58 64.75-24.67 40.08-24.67 40.08-27.75ZM61.67-21.58L64.75-21.58 64.75-18.5 61.67-18.5ZM58.58-18.5L61.67-18.5 61.67-15.42 58.58-15.42ZM55.5 3.08L55.5-15.42 58.58-15.42 58.58 6.17 49.33 6.17 49.33 3.08ZM89.42-27.75L92.5-27.75 92.5-24.67 89.42-24.67ZM86.33-24.67L89.42-24.67 89.42-21.58 86.33-21.58ZM92.5-24.67L95.58-24.67 95.58-21.58 92.5-21.58ZM83.25-21.58L86.33-21.58 86.33-18.5 83.25-18.5ZM95.58-21.58L98.67-21.58 98.67-18.5 95.58-18.5ZM80.17-18.5L83.25-18.5 83.25-15.42 80.17-15.42ZM98.67-18.5L101.75-18.5 101.75-15.42 98.67-15.42ZM74-15.42L80.17-15.42 80.17-12.33 74-12.33ZM101.75-15.42L107.92-15.42 107.92-12.33 101.75-12.33ZM89.42-15.42L92.5-15.42 92.5 6.17 89.42 6.17ZM117.17-27.75L120.25-27.75 120.25-24.67 117.17-24.67ZM138.75-27.75L144.92-27.75 144.92-24.67 138.75-24.67ZM114.08-24.67L117.17-24.67 117.17-21.58 114.08-21.58ZM120.25-18.5L120.25-21.58 123.33-21.58 123.33-15.42 120.25-15.42 120.25-12.33 117.17-12.33 117.17-15.42 111-15.42 111-21.58 114.08-21.58 114.08-18.5ZM114.08-12.33L117.17-12.33 117.17-9.25 114.08-9.25ZM111-9.25L114.08-9.25 114.08-6.17 123.33-6.17 123.33-3.08 111-3.08ZM117.17 0L123.33 0 123.33 3.08 117.17 3.08ZM132.58 0L138.75 0 138.75 3.08 132.58 3.08ZM117.17 6.17L111 6.17 111 3.08 117.17 3.08ZM129.5-12.33L135.67-12.33 135.67-21.58 129.5-21.58ZM126.42-24.67L138.75-24.67 138.75-12.33 144.92-12.33 144.92-9.25 141.83-9.25 141.83 0 138.75 0 138.75-9.25 129.5-9.25 129.5 3.08 132.58 3.08 132.58 6.17 123.33 6.17 123.33 3.08 126.42 3.08ZM141.83 0L144.92 0 144.92 6.17 141.83 6.17Z" transform="translate(0, 27.75)">
								</path>
							</g>
						</g>
					</g>
				</g>
				<g data-gra="path-slogan" fill-rule="" class="tp-slogan" transform="translate(42.459999084472656,43.91999816894531)">
					<!--  -->
					<!--  -->
					<g mask="url(#9a82af12-a4d2-4b91-94e7-90bf05b0bbcb)">
						<g>
							<rect data-gra="graph-name-bg" stroke-width="2" class="i-icon-bg" x="0" y="0" width="63" height="12" fill-opacity="1">
							</rect>
							<!--  -->
							<!--  -->
						</g>
						<g transform="translate(5,2)">
							<g transform="scale(1, 1)" fill="#1c085d">
								<g transform="scale(1)">
									<path d="M0-8L1-8L1-3L0-3ZM2-8L3-8L3-3L2-3ZM4-8L5-8L5-3L4-3ZM1-3L2-3L2 0L1 0ZM3-3L4-3L4 0L3 0ZM8-8L9-8L9-6L8-6ZM9-4L9-6L10-6L10-3L7-3L7-6L8-6L8-4ZM6-3L7-3L7 0L6 0ZM10-3L11-3L11 0L10 0ZM12-8L13-8L13-1L17-1L17 0L12 0ZM18-8L19-8L19-1L23-1L23 0L18 0ZM24-8L25-8L25-5L28-5L28-8L29-8L29 0L28 0L28-4L25-4L25 0L24 0ZM32-8L33-8L33-6L32-6ZM33-4L33-6L34-6L34-3L31-3L31-6L32-6L32-4ZM30-3L31-3L31 0L30 0ZM34-3L35-3L35 0L34 0ZM36-8L37-8L37-5L36-5ZM40-8L41-8L41-5L40-5ZM37-5L38-5L38-2L37-2ZM39-5L40-5L40-2L39-2ZM38-2L39-2L39 0L38 0ZM42-8L47-8L47-7L43-7L43-5L46-5L46-4L43-4L43-1L47-1L47 0L42 0ZM50-5L51-5L51-3L50-3ZM48-8L49-8L49-7L50-7L50-5L49-5L49 0L48 0ZM52-8L53-8L53 0L52 0L52-1L51-1L51-3L52-3Z" transform="translate(0, 8)">
									</path>
								</g>
							</g>
						</g>
					</g>
				</g>
			</g>
		</g>
	</g>
	<mask id="9a82af12-a4d2-4b91-94e7-90bf05b0bbcb">
		<g fill="white">
			<rect data-gra="graph-name-bg" stroke-width="2" class="i-icon-bg" x="0" y="0" width="63" height="12" fill-opacity="1">
			</rect>
		</g>
		<g transform="translate(5,2)" fill="black">
			<g transform="scale(1, 1)">
				<g transform="scale(1)">
					<path d="M0-8L1-8L1-3L0-3ZM2-8L3-8L3-3L2-3ZM4-8L5-8L5-3L4-3ZM1-3L2-3L2 0L1 0ZM3-3L4-3L4 0L3 0ZM8-8L9-8L9-6L8-6ZM9-4L9-6L10-6L10-3L7-3L7-6L8-6L8-4ZM6-3L7-3L7 0L6 0ZM10-3L11-3L11 0L10 0ZM12-8L13-8L13-1L17-1L17 0L12 0ZM18-8L19-8L19-1L23-1L23 0L18 0ZM24-8L25-8L25-5L28-5L28-8L29-8L29 0L28 0L28-4L25-4L25 0L24 0ZM32-8L33-8L33-6L32-6ZM33-4L33-6L34-6L34-3L31-3L31-6L32-6L32-4ZM30-3L31-3L31 0L30 0ZM34-3L35-3L35 0L34 0ZM36-8L37-8L37-5L36-5ZM40-8L41-8L41-5L40-5ZM37-5L38-5L38-2L37-2ZM39-5L40-5L40-2L39-2ZM38-2L39-2L39 0L38 0ZM42-8L47-8L47-7L43-7L43-5L46-5L46-4L43-4L43-1L47-1L47 0L42 0ZM50-5L51-5L51-3L50-3ZM48-8L49-8L49-7L50-7L50-5L49-5L49 0L48 0ZM52-8L53-8L53 0L52 0L52-1L51-1L51-3L52-3Z" transform="translate(0, 8)">
					</path>
				</g>
			</g>
		</g>
	</mask>
	<defs v-gra="od">
	</defs>
</svg>
